<?xml version="1.0" standalone="no"?><!DOCTYPE svg PUBLIC "-//W3C//DTD SVG 1.1//EN" "http://www.w3.org/Graphics/SVG/1.1/DTD/svg11.dtd"><svg t="1726724697708" class="icon" viewBox="0 0 1024 1024" version="1.1" xmlns="http://www.w3.org/2000/svg" p-id="6960" xmlns:xlink="http://www.w3.org/1999/xlink" width="200" height="200"><path d="M512 437.3c-41.2 0-74.7 33.4-74.7 74.7 0 41.2 33.4 74.7 74.7 74.7 41.2 0 74.7-33.5 74.7-74.7s-33.5-74.7-74.7-74.7" fill="#ffffff" p-id="6961"></path><path d="M512 213.3C264.6 213.3 64 512 64 512s200.6 298.7 448 298.7S960 512 960 512 759.4 213.3 512 213.3m0 485.4c-103.1 0-186.7-83.6-186.7-186.7S408.9 325.3 512 325.3 698.7 408.9 698.7 512 615.1 698.7 512 698.7" fill="#ffffff" p-id="6962"></path></svg>