<?xml version="1.0" standalone="no"?><!DOCTYPE svg PUBLIC "-//W3C//DTD SVG 1.1//EN" "http://www.w3.org/Graphics/SVG/1.1/DTD/svg11.dtd"><svg t="1750219889135" class="icon" viewBox="0 0 1024 1024" version="1.1" xmlns="http://www.w3.org/2000/svg" p-id="5452" xmlns:xlink="http://www.w3.org/1999/xlink" width="200" height="200"><path d="M821.248 661.12h-123.136a341.248 341.248 0 0 0 65.472 101.632c24.32-28.16 43.648-61.824 57.6-101.696z m129.664 0h-62.144c-19.392 56.384-45.696 103.296-79.488 141.952 41.152 29.888 91.008 51.84 150.72 65.152-13.568 13.248-31.296 39.872-40.32 56.448-63.424-16.64-114.944-42.368-157.376-76.8-44.864 35.712-99.2 61.888-164.288 80.128a345.792 345.792 0 0 0-36.224-56.896c62.976-14.08 114.496-35.712 156.032-66.432-34.176-39.808-60.48-87.552-81.92-143.616H570.816v-58.88h169.664c-4.096-16.64-11.52-37.824-19.328-54.4l64.256-19.136c10.24 19.52 21.76 45.696 25.92 63.104l-33.344 10.368h172.928v58.944zM528.64 462.08c0 91.52-75.2 166.4-167.04 166.4a167.232 167.232 0 0 1-167.104-166.4V262.4c0-91.52 75.136-166.4 167.04-166.4s167.04 74.88 167.04 166.4v199.68z" fill="#ffffff" p-id="5453"></path><path d="M528.64 624.576v87.04a300.928 300.928 0 0 1-133.696 48v101.824h100.224a33.28 33.28 0 1 1 0 66.56H227.904a33.28 33.28 0 1 1 0-66.56h100.224v-101.76a298.048 298.048 0 0 1-263.68-251.52 33.344 33.344 0 1 1 65.984-10.24c17.408 112.384 116.8 197.12 231.104 197.12a234.88 234.88 0 0 0 167.04-70.464zM561.792 195.84a33.28 33.28 0 0 1 33.152-33.28h165.952a33.28 33.28 0 0 1 33.152 33.28v166.4h66.368L760.96 495.36l-99.584-133.12h66.368V229.12H594.944a33.28 33.28 0 0 1-33.152-33.28z" fill="#ffffff" p-id="5454"></path></svg>